<svg xmlns="http://www.w3.org/2000/svg" xmlns:xlink="http://www.w3.org/1999/xlink" version="1.1" x="0px" y="0px" viewBox="0 0 50 62.5" style="enable-background:new 0 0 50 50;" xml:space="preserve"><g><path d="M41.5,26.8c-0.4,0-0.8,0-1.2,0.1l1.6,3v-0.7c1.1,0.1,2.2,0.5,3,1.2l-1.8,1.8l0.3,0.7l1.9-1.9c0.7,0.8,1.2,1.8,1.2,3h-2.7
 c0,0.2,0,0.5,0,0.7h2.7c-0.1,1.1-0.5,2.2-1.2,3l-1.9-1.9c-0.1,0.2-0.3,0.3-0.5,0.5l2,2c-0.8,0.7-1.8,1.2-3,1.2v-2.9
 c-0.1,0-0.4,0-0.7-0.1v2.9c-1.1-0.1-2.2-0.5-3-1.2l2.1-2.1c-0.2-0.1-0.3-0.3-0.5-0.5l-2.1,2.1c-0.7-0.8-1.1-1.8-1.2-3h2.9L39,34
 h-2.5c0.1-1.1,0.4-2,1.1-2.8l-1.2-2.3c-1.4,1.4-2.3,3.3-2.3,5.4c0,4.1,3.4,7.5,7.5,7.5c4.1,0,7.5-3.4,7.5-7.5S45.6,26.8,41.5,26.8z
 "/><path d="M12.3,37.6l-1.5-1.5l-0.8,0.2l1.7,1.7c-0.8,0.7-1.8,1.2-3,1.2v-2.7c-0.1,0-0.2,0-0.2,0c-0.2,0-0.3,0-0.5-0.1v2.7
 c-1.1-0.1-2.2-0.5-3-1.2l2-2C7,36,6.8,35.8,6.7,35.6l-2.1,2c-0.7-0.8-1.2-1.8-1.2-3h3c0-0.2,0-0.5,0.1-0.7H3.4
 c0.1-1.1,0.5-2.2,1.2-3l2.2,2.2C7,33,7.2,32.8,7.4,32.7l-2.2-2.2c0.8-0.7,1.8-1.1,3-1.2v3.1l0.7-0.2v-2.9c1.1,0.1,2.2,0.5,3,1.2
 l-1.2,1.2l1.4-0.4l0.3-0.3c0.1,0.1,0.1,0.1,0.2,0.2l2.5-0.7c-1.3-2.2-3.7-3.7-6.5-3.7c-4.1,0-7.5,3.4-7.5,7.5s3.4,7.5,7.5,7.5
 c4,0,7.3-3.1,7.5-7.1l-2.5,0.7C13.3,36.3,12.9,37,12.3,37.6z"/><path d="M34.5,23.3l6,11.5c0.2,0.4,0.6,0.6,1.1,0.6c0.2,0,0.4,0,0.6-0.1c0.6-0.3,0.8-1,0.5-1.6l-6.1-11.7c0.4-0.2,0.9-0.3,1.4-0.3
 c4.6-0.4,4.3-0.7,5.7-0.2c1.3,0.5,3.7,1.6,3.7,1.6s-1.8-2.2-3.2-2.6c-1.3-0.4-4.9-0.6-5.7-0.7h0L34,17l-0.9-1.7
 c-0.4,0.2-0.6,0.2-2.4,0.6l0.4,0.7l-1.2,1c0,0-4.8,2.7-9.6,2.5C15.5,20.1,1.8,19,1.8,19v0.5l6.4,1.4l0.4,1.4
 c0.2-0.1,0.5-0.2,0.8-0.2c0.3,0,0.6,0.1,0.8,0.2l9,4.6l4.3-3.7c0.2-0.2,0.4-0.3,0.6-0.3l2.7-0.9c0.2-0.1,0.4-0.1,0.6-0.1
 c0.7,0,1.3,0.4,1.6,1l2.3,4.3c0.1,0.3,0.2,0.5,0.2,0.8l0.4-0.2C31.9,27.8,32.6,25.1,34.5,23.3z"/><path d="M28.1,23.4c-0.2-0.3-0.6-0.5-1-0.4l-2.7,0.9c-0.1,0-0.2,0.1-0.3,0.2l-4.4,3.8c-0.3,0.2-0.6,0.3-0.9,0.1l-9.1-4.7
 c-0.5-0.3-1.1,0.1-1.2,0.6l0,0.3C8.5,24.5,8.7,24.9,9,25l9.2,4c0.2,0.1,0.3,0.2,0.4,0.4l3.6-1c0.2-0.1,0.4-0.1,0.6-0.1
 c1,0,1.9,0.7,2.1,1.7c0.2,1.1-0.4,2.2-1.5,2.5l-2.9,0.8l0.2,0.4c0.1,0.3,0.4,0.5,0.8,0.5h6.1c0.3,0,0.6-0.2,0.8-0.5l2.1-5.4
 c0.1-0.2,0.1-0.5,0-0.7L28.1,23.4z"/><path d="M7.5,34.7l0,0.1c0.2,0.6,0.8,1,1.4,0.8l14.2-4c0.6-0.2,0.9-0.7,0.8-1.3c-0.1-0.7-0.8-1.1-1.4-0.9L8.3,33.3
 C7.7,33.5,7.3,34.1,7.5,34.7z"/><path d="M29.9,10c0.8,0,1.5,0.5,1.8,1.3c0.3,1-0.3,2-1.2,2.3l-2.7,0.8c0.4,0.6,1.1,0.9,1.8,0.7c1.3-0.6,4.8-0.4,4.2-2.7L33,9.4
 C32.7,8.6,31.9,8,31,8.2L27.9,9c-0.8,0.2-1.3,1-1.2,1.9C29.4,10.1,29.5,10,29.9,10z"/><path d="M26.7,13.7l3.4-1c0.5-0.1,0.7-0.6,0.6-1.1s-0.6-0.7-1.1-0.6l-3.4,1c-0.5,0.1-0.7,0.6-0.6,1.1S26.3,13.8,26.7,13.7z"/></g></svg>