<svg xmlns="http://www.w3.org/2000/svg" version="1.1" viewBox="-5.0 -10.0 110.0 135.0">
    <path d="m13.609 61.941c-1.3281 0.14062-2.3281 1.2305-2.3281 2.5703 0 1.5 1.3281 2.7109 2.8203 2.5586l17.328-1.6211-1.0195-5.0703z"/>
    <path d="m13.398 59.691 7.8516-0.73047c-1.7109-2.0117-4.2305-3.2305-6.9414-3.2305-5.0195 0-9.1094 4.0898-9.1094 9.1211 0 5.0195 4.0898 9.1094 9.1094 9.1094 3.6914 0 6.9219-2.1719 8.3516-5.4414l-8.3516 0.78125c-0.16016 0.019531-0.30078 0.019531-0.46094 0.019531-2.6602 0-4.8281-2.1719-4.8281-4.8281 0-2.4805 1.8906-4.5625 4.3789-4.8008z"/>
    <path d="m14.309 76.23c-6.2695 0-11.371-5.1016-11.371-11.371s5.1016-11.379 11.371-11.379c3.8906 0 7.4688 2 9.5508 5.2383l3.2305-0.30078c-2.4102-4.7617-7.3594-7.8711-12.781-7.8711-7.8789 0.003906-14.309 6.4141-14.309 14.312 0 7.8789 6.4297 14.309 14.309 14.309 6.7617 0 12.52-4.7109 13.961-11.16l-3.1211 0.28906c-1.4766 4.7148-5.8203 7.9336-10.84 7.9336z"/>
    <path d="m49.539 47.641-18.711 3.25 3.6094 18.148 9.2109-14.949c1.543-2.5195 3.5625-4.6797 5.8906-6.4492z"/>
    <path d="m55.59 44.301c9.1719-3.4609 14.031-6.0117 16.602-7.7617l-3.9219-2.5703c-2.6797-1.7617-5.8086-2.6992-9.0195-2.6992h-2.5703c-2.1211 0-4.1797 0.39062-6.1484 1.1797l-5.6211 2.2695c-2.3008 0.92188-4.3789 2.3984-6.0195 4.2617l-1.5195 1.7305c-0.25 0.28125-0.60938 0.42187-0.96875 0.37109l-11.41-1.2188c-0.42969-0.050781-0.78906-0.32812-0.94141-0.73047l-2.2695-6.2695-16.152-0.003906c6 3.1406 16.969 9.2812 24.211 15.91z"/>
    <path d="m76.41 47.281h0.019532c0.85156-0.33984 1.75-0.67969 2.7109-1.0508 0.35938-0.14062 0.73047-0.28125 1.0898-0.42188 0 0 0.011719 0 0.011719-0.011719 1.8203-0.69141 3.8203-1.4805 6.1719-2.4688 1.7617-0.76172 2.7109-1.7891 2.8906-3.1914 0.73047-5.5-9.6016-15.238-14.578-19.309l-3.9883 4.3906c2.5 1.1602 7.0703 3.9414 6.5898 8.5898-0.058594 0.57812-0.17969 1.7305-2.5312 3.6016v0.011719c-2.5703 2.0508-7.7812 4.9805-18.512 9.0195-4.4297 1.6719-8.2305 4.8008-10.699 8.8203l-9.6484 15.68h28.531c-1.7891-2.4688-3.7188-7.0781-0.14844-13.379 3.5508-6.2617 6.7109-8.1328 12.09-10.281z"/>
    <path d="m80.02 48.301c-0.019531 0.011719-0.050781 0.019531-0.070312 0.03125-0.57812 0.21094-1.1094 0.42188-1.6211 0.62109l0.35938 0.89844c0.55078-0.25 1.1094-0.46875 1.6797-0.67969z"/>
    <path d="m71.59 62.488c0.58984-0.53906 1.2695-1.2617 1.8008-1.8281 1.4805-1.5703 2.8789-3.0312 4.0508-3.5117 0.011719-0.011719 0.019532-0.011719 0.03125-0.011719 0.019532-0.011719 0.050782-0.03125 0.070313-0.03125 0.51953-0.17969 1.0195-0.16016 1.4805 0-0.53906-1.1484-1.1719-2.4102-1.9102-3.6914-2.875 2.1758-4.9023 5.3867-5.5234 9.0742z"/>
    <path d="m79.02 52.199c1.5195 2.6484 2.6602 5.2188 3.3594 6.9102 0.82031-1.9688 2.8516-3.8086 7.5781-3.7188 0.58984 0.011719 1.2109 0.058594 1.8203 0.089844h0.011718c0.011719 0 0.011719 0.011719 0.019532 0.011719 0.89062 0.058593 1.7812 0.14844 2.6094 0.23047 0.76953 0.070313 1.6914 0.16016 2.4414 0.19922-2.6211-3.2695-6.6406-5.3789-11.16-5.3789-2.4102 0.007812-4.6797 0.59766-6.6797 1.6562z"/>
    <path d="m85.539 66.398c0.23047 0.089843 0.46875 0.089843 0.69922 0.011718 0.35156-0.14844 0.55859-0.46875 0.55859-0.85156 0-0.10938-0.019531-0.23047-0.058594-0.33984l-2.1914-5.4883c-0.23828 0.46094-0.30078 0.87891-0.35156 1.1406-0.089843 0.46875-0.33984 0.87891-0.67969 1.1797l1.5195 3.8516c0.11328 0.22656 0.28516 0.39844 0.50391 0.49609z"/>
    <path d="m85.691 73.969c5.0312 0 9.1211-4.0898 9.1211-9.1094 0-2.8086-1.2617-5.3906-3.4492-7.1406-0.5-0.03125-0.98047-0.058594-1.4414-0.070312-1.5898-0.03125-2.7305 0.17969-3.5508 0.51953l2.4805 6.2383c0.14844 0.37109 0.21094 0.76953 0.21094 1.1602 0 1.3086-0.78125 2.4609-2 2.9297-0.37109 0.16016-0.76953 0.23828-1.1602 0.23828-0.42969 0-0.85156-0.089844-1.25-0.26953-0.78125-0.32812-1.3789-0.94922-1.6914-1.7383l-1.7617-4.4219c-0.28125-0.17188-0.55078-0.37891-0.73047-0.67969-1.0508-1.6484-1.6992-2.1484-2.0117-2.3203-1.2188 1.5898-1.8789 3.5312-1.8789 5.5508 0 5.0234 4.0938 9.1133 9.1133 9.1133z"/>
    <path d="m98.328 58.148c-0.80078 0.10937-1.9492 0.019531-3.5586-0.12109 1.4805 1.9414 2.3008 4.3086 2.3008 6.8281 0 6.2695-5.1094 11.371-11.379 11.371-6.2695 0-11.371-5.1016-11.371-11.371 0-0.71094 0.070313-1.4219 0.19922-2.1094-1.3281 1.3906-2.2812 2.2891-3.1094 2.6211 0.26953 7.6484 6.5586 13.801 14.281 13.801 7.8906 0 14.309-6.4297 14.309-14.309 0-2.4297-0.60938-4.6992-1.6719-6.7109z"/>
</svg>